mtllib block_pow.mtl

v 7.000000 0.000000 7.000000
v 8.000000 2.000000 -7.000000
v 8.000000 2.000000 7.000000
v 7.000000 0.000000 -7.000000
v -7.000000 0.000000 7.000000
v -7.000000 0.000000 -7.000000
v -8.000000 2.000000 7.000000
v -8.000000 2.000000 -7.000000
v 8.000000 8.000000 -7.000000
v 8.000000 2.000000 7.000000
v 8.000000 2.000000 -7.000000
v 8.000000 8.000000 7.000000
v 8.000000 14.000000 -7.000000
v 8.000000 14.000000 7.000000
v -8.000000 8.000000 7.000000
v -8.000000 2.000000 -7.000000
v -8.000000 2.000000 7.000000
v -8.000000 8.000000 -7.000000
v -8.000000 14.000000 7.000000
v -8.000000 14.000000 -7.000000
v 8.000000 14.000000 -7.000000
v -7.000000 16.000000 -7.000000
v 7.000000 16.000000 -7.000000
v -8.000000 14.000000 -7.000000
v -8.000000 8.000000 -7.000000
v 7.000000 16.000000 -7.000000
v 8.000000 14.000000 7.000000
v 8.000000 14.000000 -7.000000
v 7.000000 16.000000 7.000000
v -7.000000 16.000000 7.000000
v -8.000000 14.000000 -7.000000
v -8.000000 14.000000 7.000000
v -7.000000 16.000000 -7.000000
v 8.000000 2.000000 7.000000
v -7.000000 0.000000 7.000000
v 7.000000 0.000000 7.000000
v -8.000000 2.000000 7.000000
v -8.000000 8.000000 7.000000
v 8.000000 8.000000 7.000000
v -8.000000 14.000000 7.000000
v 8.000000 14.000000 7.000000
v -7.000000 0.000000 -7.000000
v 8.000000 2.000000 -7.000000
v 7.000000 0.000000 -7.000000
v -8.000000 2.000000 -7.000000
v 8.000000 8.000000 -7.000000
v -7.000000 16.000000 7.000000
v 7.000000 16.000000 7.000000

vt 0.031250 0.937500
vt 0.031250 0.937500
vt 0.031250 0.937500
vt 0.031250 0.937500
vt 0.031250 0.937500
vt 0.031250 0.937500
vt 0.031250 0.937500
vt 0.031250 0.937500
vt -0.335938 0.015625
vt 0.101563 0.015625
vt 0.101563 0.015625
vt -0.335938 0.015625
vt 0.101563 0.015625
vt 0.101563 0.015625
vt -0.335938 0.015625
vt 0.101563 0.015625
vt 0.101563 0.015625
vt -0.335938 0.015625
vt 0.101563 0.015625
vt 0.101563 0.015625
vt 0.000000 0.875000
vt 0.937500 1.000000
vt 0.062500 1.000000
vt 1.000000 0.875000
vt 1.000000 0.500000
vt 0.031250 0.937500
vt 0.031250 0.937500
vt 0.031250 0.937500
vt 0.031250 0.937500
vt 0.031250 0.937500
vt 0.031250 0.937500
vt 0.031250 0.937500
vt 0.031250 0.937500
vt 1.000000 0.125000
vt 0.062500 0.000000
vt 0.937500 0.000000
vt 0.000000 0.125000
vt 0.000000 0.500000
vt 1.000000 0.500000
vt 0.000000 0.875000
vt 1.000000 0.875000
vt 0.937500 0.000000
vt 0.000000 0.125000
vt 0.062500 0.000000
vt 1.000000 0.125000
vt 0.000000 0.500000
vt 0.062500 1.000000
vt 0.937500 1.000000

vn 0.532813 -0.846233 0.000000
vn 0.971959 -0.235151 0.000000
vn 0.971959 -0.235151 0.000000
vn 0.532813 -0.846233 0.000000
vn -0.532813 -0.846233 0.000000
vn -0.532813 -0.846233 0.000000
vn -0.971959 -0.235151 0.000000
vn -0.971959 -0.235151 0.000000
vn 1.000000 0.000000 0.000000
vn 0.971959 -0.235151 0.000000
vn 0.971959 -0.235151 0.000000
vn 1.000000 0.000000 0.000000
vn 0.971959 0.235151 0.000000
vn 0.971959 0.235151 0.000000
vn -1.000000 0.000000 0.000000
vn -0.971959 -0.235151 0.000000
vn -0.971959 -0.235151 0.000000
vn -1.000000 0.000000 0.000000
vn -0.971959 0.235151 0.000000
vn -0.971959 0.235151 0.000000
vn 0.000000 0.000000 -1.000000
vn 0.000000 0.000000 -1.000000
vn 0.000000 0.000000 -1.000000
vn 0.000000 0.000000 -1.000000
vn 0.000000 0.000000 -1.000000
vn 0.532813 0.846233 0.000000
vn 0.971959 0.235151 0.000000
vn 0.971959 0.235151 0.000000
vn 0.532813 0.846233 0.000000
vn -0.532813 0.846233 0.000000
vn -0.971959 0.235151 0.000000
vn -0.971959 0.235151 0.000000
vn -0.532813 0.846233 0.000000
vn 0.000000 0.000000 1.000000
vn 0.000000 0.000000 1.000000
vn 0.000000 0.000000 1.000000
vn 0.000000 0.000000 1.000000
vn 0.000000 0.000000 1.000000
vn 0.000000 0.000000 1.000000
vn 0.000000 0.000000 1.000000
vn 0.000000 0.000000 1.000000
vn 0.000000 0.000000 -1.000000
vn 0.000000 0.000000 -1.000000
vn 0.000000 0.000000 -1.000000
vn 0.000000 0.000000 -1.000000
vn 0.000000 0.000000 -1.000000
vn 0.000000 0.000000 1.000000
vn 0.000000 0.000000 1.000000

g polygon0
s 1
usemtl mat1
f 1/1/1 2/2/2 3/3/3
f 1/1/1 4/4/4 2/2/2
f 5/5/5 4/4/4 1/1/1
f 5/5/5 6/6/6 4/4/4
f 7/7/7 6/6/6 5/5/5
f 7/7/7 8/8/8 6/6/6
f 9/9/9 10/10/10 11/11/11
f 9/9/9 12/12/12 10/10/10
f 13/13/13 12/12/12 9/9/9
f 13/13/13 14/14/14 12/12/12
f 15/15/15 16/16/16 17/17/17
f 15/15/15 18/18/18 16/16/16
f 19/19/19 18/18/18 15/15/15
f 19/19/19 20/20/20 18/18/18
f 21/21/21 22/22/22 23/23/23
f 21/21/21 24/24/24 22/22/22
f 25/25/25 24/24/24 21/21/21
f 26/26/26 27/27/27 28/28/28
f 26/26/26 29/29/29 27/27/27
f 30/30/30 29/29/29 26/26/26
f 30/30/30 31/31/31 32/32/32
f 30/30/30 33/33/33 31/31/31
f 26/26/26 33/33/33 30/30/30
f 34/34/34 35/35/35 36/36/36
f 34/34/34 37/37/37 35/35/35
f 38/38/38 37/37/37 34/34/34
f 39/39/39 38/38/38 34/34/34
f 39/39/39 40/40/40 38/38/38
f 41/41/41 40/40/40 39/39/39
f 42/42/42 43/43/43 44/44/44
f 42/42/42 45/45/45 43/43/43
f 45/45/45 46/46/46 43/43/43
f 45/45/45 25/25/25 46/46/46
f 47/47/47 41/41/41 48/48/48
f 47/47/47 40/40/40 41/41/41
f 21/21/21 46/46/46 25/25/25

